<svg width="190" height="60" fill="none" xmlns="http://www.w3.org/2000/svg"><path fill="#D9D9D9" d="M0 0h190v60H0z"/><path d="M80.398 36v-1.094h.278c.229 0 .42-.044.572-.134.152-.093.275-.253.368-.482.096-.232.169-.554.219-.965.053-.414.09-.941.114-1.58l.14-3.381h5.09V36h-1.173v-6.543h-2.804l-.12 2.725a12.366 12.366 0 01-.169 1.655c-.082.474-.21.872-.382 1.194a1.753 1.753 0 01-.677.725c-.281.163-.634.244-1.058.244h-.398zm12.036.16c-.69 0-1.294-.165-1.815-.493a3.345 3.345 0 01-1.213-1.377c-.288-.59-.432-1.28-.432-2.068 0-.796.144-1.49.432-2.084a3.338 3.338 0 011.213-1.382c.52-.328 1.126-.492 1.815-.492.69 0 1.293.164 1.81.492.52.328.924.79 1.213 1.383.291.593.437 1.287.437 2.083 0 .788-.146 1.478-.437 2.068a3.298 3.298 0 01-1.213 1.377c-.517.328-1.12.492-1.81.492zm0-1.055c.524 0 .954-.134 1.293-.403.338-.268.588-.621.75-1.058.163-.438.244-.912.244-1.422 0-.51-.081-.986-.244-1.427a2.405 2.405 0 00-.75-1.07c-.339-.27-.77-.407-1.293-.407-.524 0-.955.136-1.293.408a2.405 2.405 0 00-.75 1.069c-.163.44-.244.916-.244 1.427 0 .51.081.984.244 1.422.162.437.412.79.75 1.058.338.269.77.403 1.293.403zm9.964-6.741v1.093h-3.54V36h-1.173v-7.636h4.713zm4.419 7.795c-.69 0-1.295-.164-1.815-.492a3.346 3.346 0 01-1.213-1.377c-.288-.59-.432-1.28-.432-2.068 0-.796.144-1.49.432-2.084a3.34 3.34 0 011.213-1.382c.52-.328 1.125-.492 1.815-.492.689 0 1.292.164 1.809.492.521.328.925.79 1.213 1.383.292.593.438 1.287.438 2.083 0 .788-.146 1.478-.438 2.068a3.291 3.291 0 01-1.213 1.377c-.517.328-1.12.492-1.809.492zm0-1.054c.523 0 .954-.134 1.292-.403a2.37 2.37 0 00.751-1.058c.162-.438.244-.912.244-1.422 0-.51-.082-.986-.244-1.427a2.402 2.402 0 00-.751-1.07c-.338-.27-.769-.407-1.292-.407-.524 0-.955.136-1.293.408a2.41 2.41 0 00-.751 1.069 4.1 4.1 0 00-.243 1.427c0 .51.081.984.243 1.422.163.437.413.79.751 1.058.338.269.769.403 1.293.403z" fill="#000"/></svg>