<svg viewBox="0 0 24 24"  xmlns="http://www.w3.org/2000/svg" style="display:none">

	<symbol viewBox="0 0 18 11" id="slider-arrow-prev">
		<path fill-rule="evenodd" clip-rule="evenodd" d="M5.88819 0.647754C5.69365 0.451772 5.37707 0.450604 5.18109 0.645144L0.647754 5.14514C0.553186 5.23902 0.5 5.36675 0.5 5.5C0.5 5.63325 0.553186 5.76098 0.647754 5.85486L5.18109 10.3549C5.37707 10.5494 5.69365 10.5482 5.88819 10.3522C6.08273 10.1563 6.08156 9.83968 5.88558 9.64514L1.70973 5.5L5.88558 1.35486C6.08156 1.16032 6.08273 0.843735 5.88819 0.647754Z"/>
		<path fill-rule="evenodd" clip-rule="evenodd" d="M17.5 5.5C17.5 5.22386 17.2762 5 17 5H2.15558C1.87944 5 1.65558 5.22386 1.65558 5.5C1.65558 5.77614 1.87944 6 2.15558 6H17C17.2762 6 17.5 5.77614 17.5 5.5Z"/>
	</symbol>

	<symbol viewBox="0 0 18 11" id="slider-arrow-next">
		<path fill-rule="evenodd" clip-rule="evenodd" d="M12.1118 0.647754C12.3064 0.451772 12.623 0.450604 12.8189 0.645144L17.3523 5.14514C17.4468 5.23902 17.5 5.36675 17.5 5.5C17.5 5.63325 17.4468 5.76098 17.3523 5.85486L12.8189 10.3549C12.623 10.5494 12.3064 10.5482 12.1118 10.3522C11.9173 10.1563 11.9185 9.83968 12.1144 9.64514L16.2903 5.5L12.1144 1.35486C11.9185 1.16032 11.9173 0.843735 12.1118 0.647754Z"/>
		<path fill-rule="evenodd" clip-rule="evenodd" d="M0.5 5.5C0.5 5.22386 0.723858 5 1 5H15.8444C16.1206 5 16.3444 5.22386 16.3444 5.5C16.3444 5.77614 16.1206 6 15.8444 6H1C0.723858 6 0.5 5.77614 0.5 5.5Z"/>
	</symbol>

	<symbol viewBox="0 0 18 18" id="search">
		<path fill-rule="evenodd" clip-rule="evenodd" d="M0.5 8.05882C0.5 3.8842 3.8842 0.5 8.05882 0.5C12.2334 0.5 15.6176 3.88419 15.6176 8.05882C15.6176 9.96618 14.9112 11.7085 13.7456 13.0385L17.3536 16.6464C17.5488 16.8417 17.5488 17.1583 17.3536 17.3536C17.1583 17.5488 16.8417 17.5488 16.6464 17.3536L13.0385 13.7456C11.7085 14.9112 9.96618 15.6176 8.05882 15.6176C3.88419 15.6176 0.5 12.2334 0.5 8.05882ZM8.05882 1.5C4.43648 1.5 1.5 4.43648 1.5 8.05882C1.5 11.6811 4.43648 14.6176 8.05882 14.6176C11.6811 14.6176 14.6176 11.6811 14.6176 8.05882C14.6176 4.43648 11.6811 1.5 8.05882 1.5Z"/>
	</symbol>
	
	<symbol viewBox="0 0 24 24" id="drop-down-arrow">
		<path fill-rule="evenodd" clip-rule="evenodd" d="M5.64642 9.35356L6.35353 8.64645L12 14.2929L17.6464 8.64645L18.3535 9.35356L12 15.7071L5.64642 9.35356Z"/>
	</symbol>

	<symbol viewBox="0 0 24 24" id="filter">
		<path fill-rule="evenodd" clip-rule="evenodd" d="M3.5 5C3.5 4.72386 3.72386 4.5 4 4.5H16C16.2761 4.5 16.5 4.72386 16.5 5C16.5 5.27614 16.2761 5.5 16 5.5H4C3.72386 5.5 3.5 5.27614 3.5 5Z"/>
		<path fill-rule="evenodd" clip-rule="evenodd" d="M3.5 12C3.5 11.7239 3.72386 11.5 4 11.5H10C10.2761 11.5 10.5 11.7239 10.5 12C10.5 12.2761 10.2761 12.5 10 12.5H4C3.72386 12.5 3.5 12.2761 3.5 12Z"/>
		<path fill-rule="evenodd" clip-rule="evenodd" d="M13.5 12C13.5 11.7239 13.7239 11.5 14 11.5H20C20.2761 11.5 20.5 11.7239 20.5 12C20.5 12.2761 20.2761 12.5 20 12.5H14C13.7239 12.5 13.5 12.2761 13.5 12Z"/>
		<path fill-rule="evenodd" clip-rule="evenodd" d="M7.5 19C7.5 18.7239 7.72386 18.5 8 18.5H20C20.2761 18.5 20.5 18.7239 20.5 19C20.5 19.2761 20.2761 19.5 20 19.5H8C7.72386 19.5 7.5 19.2761 7.5 19Z"/>
		<path fill-rule="evenodd" clip-rule="evenodd" d="M18 3.5C17.1716 3.5 16.5 4.17157 16.5 5C16.5 5.82843 17.1716 6.5 18 6.5C18.8284 6.5 19.5 5.82843 19.5 5C19.5 4.17157 18.8284 3.5 18 3.5ZM15.5 5C15.5 3.61929 16.6193 2.5 18 2.5C19.3807 2.5 20.5 3.61929 20.5 5C20.5 6.38071 19.3807 7.5 18 7.5C16.6193 7.5 15.5 6.38071 15.5 5Z"/>
		<path fill-rule="evenodd" clip-rule="evenodd" d="M12 10.5C11.1716 10.5 10.5 11.1716 10.5 12C10.5 12.8284 11.1716 13.5 12 13.5C12.8284 13.5 13.5 12.8284 13.5 12C13.5 11.1716 12.8284 10.5 12 10.5ZM9.5 12C9.5 10.6193 10.6193 9.5 12 9.5C13.3807 9.5 14.5 10.6193 14.5 12C14.5 13.3807 13.3807 14.5 12 14.5C10.6193 14.5 9.5 13.3807 9.5 12Z"/>
		<path fill-rule="evenodd" clip-rule="evenodd" d="M6 17.5C5.17157 17.5 4.5 18.1716 4.5 19C4.5 19.8284 5.17157 20.5 6 20.5C6.82843 20.5 7.5 19.8284 7.5 19C7.5 18.1716 6.82843 17.5 6 17.5ZM3.5 19C3.5 17.6193 4.61929 16.5 6 16.5C7.38071 16.5 8.5 17.6193 8.5 19C8.5 20.3807 7.38071 21.5 6 21.5C4.61929 21.5 3.5 20.3807 3.5 19Z"/>
	</symbol>

	<symbol viewBox="0 0 12 8" id="check">
		<path fill-rule="evenodd" clip-rule="evenodd" d="M11.8536 0.146447C12.0488 0.341709 12.0488 0.658291 11.8536 0.853553L5.5 7.20711L0.646447 2.35355C0.451184 2.15829 0.451184 1.84171 0.646447 1.64645C0.841709 1.45118 1.15829 1.45118 1.35355 1.64645L5.5 5.79289L11.1464 0.146447C11.3417 -0.0488155 11.6583 -0.0488155 11.8536 0.146447Z"/>
	</symbol>

	<symbol viewBox="0 0 24 24" id="question">
		<path d="M12 4C7.58153 4 4 7.58153 4 12C4 16.4185 7.58153 20 12 20C16.4185 20 20 16.4185 20 12C20 7.58153 16.4185 4 12 4ZM12 18.75C8.27197 18.75 5.25 15.728 5.25 12C5.25 8.27197 8.27197 5.25 12 5.25C15.728 5.25 18.75 8.27197 18.75 12C18.75 15.728 15.728 18.75 12 18.75Z"/>
		<path d="M12.5 15H11.5V16H12.5V15Z"/>
		<path d="M13.9292 8.69212C13.7266 8.48509 13.4702 8.31956 13.1552 8.19116C12.8364 8.06297 12.4624 8 12.0215 8C11.6474 8 11.3066 8.063 10.9971 8.19116C10.6865 8.31956 10.4189 8.49656 10.1943 8.72631C9.97166 8.95409 9.79831 9.17969 9.67869 9.50047C9.55956 9.82128 9.5 10 9.5 10.5H10.5205C10.5205 10 10.6528 9.62159 10.9248 9.29637C11.1934 8.96972 11.5581 8.83325 12.0215 8.83325C12.4727 8.83325 12.8101 8.95556 13.0269 9.17506C13.2417 9.39453 13.3516 9.709 13.3516 10.1062C13.3516 10.4151 13.25 10.6924 13.0474 10.9341C12.8482 11.1763 12.6299 11.4121 12.396 11.6353C12.1587 11.8584 11.9688 12.0967 11.7725 12.3428C11.5762 12.5889 11.5 12.8755 11.5 13.2022V14H12.5V13.5703C12.5 13.314 12.5376 13.0918 12.6377 12.8979C12.7344 12.7036 12.855 12.5273 13.0078 12.3701C13.1558 12.2109 13.3144 12.0576 13.4912 11.9067C13.6631 11.7578 13.8281 11.5986 13.9766 11.4326C14.1279 11.2656 14.2539 11.0781 14.3496 10.8711C14.4502 10.664 14.5005 10.4209 14.5005 10.1374C14.5005 9.89131 14.4561 9.64081 14.3633 9.38619C14.2725 9.12963 14.126 8.89894 13.9292 8.69212Z"/>
	</symbol>

	<symbol viewBox="0 0 24 24" id="upload">
		<path fill-rule="evenodd" clip-rule="evenodd" d="M6 12.25C6.27614 12.25 6.5 12.4739 6.5 12.75V16.5C6.5 17.0523 6.94771 17.5 7.5 17.5H16.5C17.0523 17.5 17.5 17.0523 17.5 16.5V12.75C17.5 12.4739 17.7239 12.25 18 12.25C18.2761 12.25 18.5 12.4739 18.5 12.75V16.5C18.5 17.6046 17.6046 18.5 16.5 18.5H7.5C6.39543 18.5 5.5 17.6046 5.5 16.5V12.75C5.5 12.4739 5.72386 12.25 6 12.25Z"/>
		<path fill-rule="evenodd" clip-rule="evenodd" d="M12 5.5C12.1326 5.5 12.2598 5.55268 12.3536 5.64645L15.3536 8.64645C15.5488 8.84171 15.5488 9.15829 15.3536 9.35355C15.1583 9.54882 14.8417 9.54882 14.6464 9.35355L12.5 7.20711V15C12.5 15.2761 12.2761 15.5 12 15.5C11.7239 15.5 11.5 15.2761 11.5 15V7.20711L9.35355 9.35355C9.15829 9.54882 8.84171 9.54882 8.64645 9.35355C8.45118 9.15829 8.45118 8.84171 8.64645 8.64645L11.6464 5.64645C11.7402 5.55268 11.8674 5.5 12 5.5Z"/>
	</symbol>

	<symbol viewBox="0 0 24 24" id="link">
		<path d="M9.25711 12C9.25711 12.1819 9.32935 12.3563 9.45795 12.4849C9.58655 12.6135 9.76096 12.6857 9.94282 12.6857H14.0571C14.239 12.6857 14.4134 12.6135 14.542 12.4849C14.6706 12.3563 14.7428 12.1819 14.7428 12C14.7428 11.8181 14.6706 11.6437 14.542 11.5151C14.4134 11.3865 14.239 11.3143 14.0571 11.3143H9.94282C9.76096 11.3143 9.58655 11.3865 9.45795 11.5151C9.32935 11.6437 9.25711 11.8181 9.25711 12ZM10.6285 14.0571H8.57139C8.02581 14.0571 7.50256 13.8404 7.11677 13.4546C6.73099 13.0688 6.51425 12.5456 6.51425 12C6.51425 11.4544 6.73099 10.9312 7.11677 10.5454C7.50256 10.1596 8.02581 9.94286 8.57139 9.94286H10.6285C10.8104 9.94286 10.9848 9.87061 11.1134 9.74201C11.242 9.61342 11.3143 9.439 11.3143 9.25714C11.3143 9.07528 11.242 8.90086 11.1134 8.77227C10.9848 8.64367 10.8104 8.57143 10.6285 8.57143H8.57139C7.66208 8.57143 6.79001 8.93265 6.14703 9.57563C5.50405 10.2186 5.14282 11.0907 5.14282 12C5.14282 12.9093 5.50405 13.7814 6.14703 14.4244C6.79001 15.0673 7.66208 15.4286 8.57139 15.4286H10.6285C10.8104 15.4286 10.9848 15.3563 11.1134 15.2277C11.242 15.0991 11.3143 14.9247 11.3143 14.7429C11.3143 14.561 11.242 14.3866 11.1134 14.258C10.9848 14.1294 10.8104 14.0571 10.6285 14.0571ZM15.4285 8.57143H13.3714C13.1895 8.57143 13.0151 8.64367 12.8865 8.77227C12.7579 8.90086 12.6857 9.07528 12.6857 9.25714C12.6857 9.439 12.7579 9.61342 12.8865 9.74201C13.0151 9.87061 13.1895 9.94286 13.3714 9.94286H15.4285C15.9741 9.94286 16.4974 10.1596 16.8832 10.5454C17.2689 10.9312 17.4857 11.4544 17.4857 12C17.4857 12.5456 17.2689 13.0688 16.8832 13.4546C16.4974 13.8404 15.9741 14.0571 15.4285 14.0571H13.3714C13.1895 14.0571 13.0151 14.1294 12.8865 14.258C12.7579 14.3866 12.6857 14.561 12.6857 14.7429C12.6857 14.9247 12.7579 15.0991 12.8865 15.2277C13.0151 15.3563 13.1895 15.4286 13.3714 15.4286H15.4285C16.3379 15.4286 17.2099 15.0673 17.8529 14.4244C18.4959 13.7814 18.8571 12.9093 18.8571 12C18.8571 11.0907 18.4959 10.2186 17.8529 9.57563C17.2099 8.93265 16.3379 8.57143 15.4285 8.57143Z"/>
	</symbol>

	<symbol viewBox="0 0 24 24" id="separator">
		<path fill-rule="evenodd" clip-rule="evenodd" d="M7.35359 3.64645L6.64648 4.35356L12.2929 10L6.64648 15.6465L7.35359 16.3536L13.7071 10L7.35359 3.64645Z"/>
	</symbol>

	<symbol viewBox="0 0 24 24" id="arrow-to-up">
		<path fill-rule="evenodd" clip-rule="evenodd" d="M7.64996 9.32371C7.45278 9.13039 7.44964 8.81382 7.64296 8.61664L11.5319 4.64997C11.6259 4.55405 11.7546 4.50001 11.8889 4.50001C12.0232 4.50001 12.1519 4.55405 12.2459 4.64997L16.1348 8.61664C16.3281 8.81382 16.325 9.13039 16.1278 9.32371C15.9306 9.51703 15.6141 9.5139 15.4207 9.31671L11.8889 5.71422L8.35704 9.31671C8.16372 9.5139 7.84715 9.51703 7.64996 9.32371Z"/>
		<path fill-rule="evenodd" clip-rule="evenodd" d="M11.8889 19.5C11.6128 19.5 11.3889 19.2761 11.3889 19L11.3889 6.01111C11.3889 5.73497 11.6128 5.51111 11.8889 5.51111C12.1651 5.51111 12.3889 5.73497 12.3889 6.01111L12.3889 19C12.3889 19.2761 12.1651 19.5 11.8889 19.5Z"/>
	</symbol>
		
</svg>