<svg width="190" height="60" viewBox="0 0 190 60" fill="none" xmlns="http://www.w3.org/2000/svg">
<rect width="190" height="60" fill="#D9D9D9"/>
<path d="M80.3977 36V34.9062H80.6761C80.9048 34.9062 81.0954 34.8615 81.2479 34.772C81.4003 34.6792 81.523 34.5185 81.6158 34.2898C81.7119 34.0578 81.7848 33.7363 81.8345 33.3253C81.8875 32.911 81.9257 32.384 81.9489 31.7443L82.0881 28.3636H87.179V36H86.0057V29.4574H83.2017L83.0824 32.1818C83.0559 32.8082 82.9995 33.3601 82.9134 33.8374C82.8305 34.3113 82.7029 34.709 82.5305 35.0305C82.3615 35.352 82.1361 35.594 81.8544 35.7564C81.5727 35.9188 81.2197 36 80.7955 36H80.3977ZM92.4339 36.1591C91.7446 36.1591 91.1397 35.995 90.6193 35.6669C90.1023 35.3388 89.6979 34.8797 89.4062 34.2898C89.1179 33.6998 88.9737 33.0104 88.9737 32.2216C88.9737 31.4261 89.1179 30.7318 89.4062 30.1385C89.6979 29.5452 90.1023 29.0845 90.6193 28.7564C91.1397 28.4283 91.7446 28.2642 92.4339 28.2642C93.1233 28.2642 93.7266 28.4283 94.2436 28.7564C94.764 29.0845 95.1683 29.5452 95.4567 30.1385C95.7483 30.7318 95.8942 31.4261 95.8942 32.2216C95.8942 33.0104 95.7483 33.6998 95.4567 34.2898C95.1683 34.8797 94.764 35.3388 94.2436 35.6669C93.7266 35.995 93.1233 36.1591 92.4339 36.1591ZM92.4339 35.1051C92.9576 35.1051 93.3885 34.9709 93.7266 34.7024C94.0646 34.4339 94.3149 34.081 94.4773 33.6435C94.6397 33.206 94.7209 32.732 94.7209 32.2216C94.7209 31.7112 94.6397 31.2356 94.4773 30.7947C94.3149 30.3539 94.0646 29.9976 93.7266 29.7259C93.3885 29.4541 92.9576 29.3182 92.4339 29.3182C91.9103 29.3182 91.4794 29.4541 91.1413 29.7259C90.8033 29.9976 90.553 30.3539 90.3906 30.7947C90.2282 31.2356 90.147 31.7112 90.147 32.2216C90.147 32.732 90.2282 33.206 90.3906 33.6435C90.553 34.081 90.8033 34.4339 91.1413 34.7024C91.4794 34.9709 91.9103 35.1051 92.4339 35.1051ZM102.398 28.3636V29.4574H98.8585V36H97.6852V28.3636H102.398ZM106.817 36.1591C106.127 36.1591 105.522 35.995 105.002 35.6669C104.485 35.3388 104.081 34.8797 103.789 34.2898C103.501 33.6998 103.357 33.0104 103.357 32.2216C103.357 31.4261 103.501 30.7318 103.789 30.1385C104.081 29.5452 104.485 29.0845 105.002 28.7564C105.522 28.4283 106.127 28.2642 106.817 28.2642C107.506 28.2642 108.109 28.4283 108.626 28.7564C109.147 29.0845 109.551 29.5452 109.839 30.1385C110.131 30.7318 110.277 31.4261 110.277 32.2216C110.277 33.0104 110.131 33.6998 109.839 34.2898C109.551 34.8797 109.147 35.3388 108.626 35.6669C108.109 35.995 107.506 36.1591 106.817 36.1591ZM106.817 35.1051C107.34 35.1051 107.771 34.9709 108.109 34.7024C108.447 34.4339 108.698 34.081 108.86 33.6435C109.022 33.206 109.104 32.732 109.104 32.2216C109.104 31.7112 109.022 31.2356 108.86 30.7947C108.698 30.3539 108.447 29.9976 108.109 29.7259C107.771 29.4541 107.34 29.3182 106.817 29.3182C106.293 29.3182 105.862 29.4541 105.524 29.7259C105.186 29.9976 104.936 30.3539 104.773 30.7947C104.611 31.2356 104.53 31.7112 104.53 32.2216C104.53 32.732 104.611 33.206 104.773 33.6435C104.936 34.081 105.186 34.4339 105.524 34.7024C105.862 34.9709 106.293 35.1051 106.817 35.1051Z" fill="black"/>
</svg>
