<svg width="20" height="20" viewBox="0 0 20 20" fill="none" xmlns="http://www.w3.org/2000/svg">
<rect width="20" height="20" rx="10" fill="white"/>
<path d="M8.04718 4.42164C8.04718 4.42164 7.86718 4 7.59227 4C7.32172 4 7.181 4.12491 7.08718 4.21109C6.99336 4.29727 5.42354 5.58727 5.42354 5.58727C5.42354 5.58727 4.967 5.986 5.0019 6.736C5.03136 7.486 5.17809 8.55345 5.93954 10.0404C6.69554 11.524 8.58772 13.7909 9.78336 14.5878C9.78336 14.5878 10.8912 15.4376 11.9221 15.7829C12.2215 15.8773 12.8204 16 12.9601 16C13.1019 16 13.3523 16 13.6397 15.79C13.9321 15.5778 15.5723 14.2589 15.5723 14.2589C15.5723 14.2589 15.9737 13.8962 15.5074 13.4745C15.0388 13.0529 13.6163 12.1153 13.3119 11.8687C13.007 11.6184 12.5728 11.7285 12.3852 11.8982C12.1981 12.0689 11.8637 12.3498 11.8228 12.3853C11.7617 12.4322 11.5943 12.5844 11.4066 12.5085C11.1677 12.4142 10.1881 11.8824 9.2799 10.6398C8.37718 9.39836 8.2779 8.99255 8.14318 8.554C8.12033 8.48917 8.12001 8.41853 8.14228 8.3535C8.16455 8.28847 8.20811 8.23285 8.2659 8.19564C8.40118 8.10182 8.89918 7.68673 8.89918 7.68673C8.89918 7.68673 9.22154 7.36873 9.08681 6.994C8.95209 6.61927 8.04718 4.42164 8.04718 4.42164Z" fill="#191919"/>
</svg>
