<svg width="20" height="20" viewBox="0 0 20 20" fill="none" xmlns="http://www.w3.org/2000/svg">
<rect width="20" height="20" rx="10" fill="white"/>
<path d="M13.7823 5.32684L10.0404 8.24712L6.21289 5.32684V5.32763L6.21752 5.33158V9.42075L9.99725 12.4041L13.7823 9.53594V5.32684Z" fill="#EA4335"/>
<path d="M14.7644 4.61649L13.7817 5.32682V9.53593L16.8739 7.16187V5.73171C16.8739 5.73171 16.4986 3.68911 14.7644 4.61649Z" fill="#FBBC05"/>
<path d="M13.7817 9.53593V14.9952H16.1517C16.1517 14.9952 16.8262 14.9258 16.8747 14.1571V7.16187L13.7817 9.53593Z" fill="#34A853"/>
<path d="M6.21769 15.0001V9.42075L6.21289 9.41681L6.21769 15.0001Z" fill="#C5221F"/>
<path d="M6.21259 5.32753L5.23529 4.62114C3.50112 3.69376 3.125 5.73558 3.125 5.73558V7.16569L6.21259 9.41669V5.32753Z" fill="#C5221F"/>
<path d="M6.21289 5.32776V9.41694L6.21769 9.42088V5.33171L6.21289 5.32776Z" fill="#C5221F"/>
<path d="M3.125 7.16675V14.1619C3.17279 14.9315 3.84796 15.0002 3.84796 15.0002H6.21798L6.21259 9.41694L3.125 7.16675Z" fill="#4285F4"/>
</svg>
