<svg width="20" height="20" fill="none" xmlns="http://www.w3.org/2000/svg"><rect width="20" height="20" rx="10" fill="#fff"/><path d="M8.047 4.422S7.867 4 7.592 4a.685.685 0 00-.505.211c-.094.086-1.663 1.376-1.663 1.376s-.457.399-.422 1.149c.03.75.176 1.817.938 3.304.756 1.484 2.648 3.75 3.843 4.548 0 0 1.108.85 2.14 1.195.299.094.897.217 1.037.217.142 0 .392 0 .68-.21.292-.212 1.932-1.531 1.932-1.531s.402-.363-.065-.784c-.468-.422-1.89-1.36-2.195-1.606-.305-.25-.74-.14-.927.03-.187.17-.521.45-.562.486-.061.047-.229.2-.416.123-.24-.094-1.219-.626-2.127-1.868-.903-1.242-1.002-1.647-1.137-2.086a.305.305 0 01.123-.358c.135-.094.633-.51.633-.51s.323-.317.188-.692c-.135-.375-1.04-2.572-1.04-2.572z" fill="#191919"/></svg>