<svg width="20" height="20" fill="none" xmlns="http://www.w3.org/2000/svg"><rect width="20" height="20" rx="10" fill="#fff"/><path d="M13.782 5.327l-3.742 2.92-3.827-2.92.005.005V9.42l3.78 2.983 3.784-2.868v-4.21z" fill="#EA4335"/><path d="M14.764 4.616l-.982.71v4.21l3.092-2.374v-1.43s-.375-2.043-2.11-1.116z" fill="#FBBC05"/><path d="M13.782 9.536v5.46h2.37s.674-.07.723-.839V7.162l-3.093 2.374z" fill="#34A853"/><path d="M6.218 15V9.42l-.005-.003L6.218 15zm-.005-9.672l-.978-.707c-1.734-.927-2.11 1.115-2.11 1.115v1.43l3.088 2.25V5.329z" fill="#C5221F"/><path d="M6.213 5.328v4.089l.005.004V5.33l-.005-.003z" fill="#C5221F"/><path d="M3.125 7.167v6.995c.048.77.723.838.723.838h2.37l-.005-5.583-3.088-2.25z" fill="#4285F4"/></svg>