<svg width="20" height="20" fill="none" xmlns="http://www.w3.org/2000/svg"><g clip-path="url(#clip0_3_564)"><ellipse cx="10" cy="10.417" rx="7.5" ry="7.917" fill="#fff"/><path fill-rule="evenodd" clip-rule="evenodd" d="M9.997 0C4.484 0 0 4.486 0 10c0 2.187.705 4.215 1.904 5.861L.658 19.577l3.844-1.229a9.92 9.92 0 005.5 1.652C15.517 20 20 15.514 20 10S15.516 0 10.003 0h-.006zM7.205 5.08c-.194-.465-.34-.482-.634-.494a5.652 5.652 0 00-.335-.012c-.382 0-.782.112-1.023.359-.294.3-1.023.999-1.023 2.433 0 1.435 1.046 2.822 1.187 3.016.147.194 2.04 3.18 4.978 4.398 2.298.952 2.98.864 3.503.752.764-.164 1.722-.729 1.963-1.41.241-.683.241-1.265.17-1.388-.07-.124-.264-.194-.557-.341-.294-.147-1.723-.853-1.993-.947-.264-.1-.517-.064-.717.218-.282.394-.558.794-.782 1.034-.176.189-.464.212-.705.112-.323-.135-1.228-.453-2.345-1.446-.864-.77-1.452-1.728-1.622-2.016-.17-.294-.018-.465.117-.623.147-.183.288-.312.435-.483.147-.17.23-.258.324-.458.1-.194.029-.394-.041-.541-.071-.147-.659-1.582-.9-2.163z" fill="#67C15E"/></g><defs><clipPath id="clip0_3_564"><path fill="#fff" d="M0 0h20v20H0z"/></clipPath></defs></svg>